M48
;Layer_Color=9474304
;FILE_FORMAT=2:5
INCH,LZ
;TYPE=PLATED
T1F00S00C0.01181
T2F00S00C0.02362
T3F00S00C0.03150
T4F00S00C0.03543
T5F00S00C0.05906
;TYPE=NON_PLATED
T6F00S00C0.02362
T7F00S00C0.03150
T8F00S00C0.03346
T9F00S00C0.04331
%
T01
X0249508Y-0217126
Y-0201378
X0205709Y-0193898
X0177165
X0173228Y-0193897
X0169016Y-0193898
X016437
X017063Y-0204095
X0177795
X0177717Y-0209095
X0177638Y-0214094
X0177559Y-0219094
X017748Y-0224095
X0170768Y-0217126
X015502
X0135955Y-0206821
X0139272Y-0201378
X0123524
X0106299Y-0204724
X0107776Y-0217126
X009252Y-019685
X0062008Y-0193897
X0059055Y-0190945
X0055118Y-018996
X005185Y-0189291
X0048228Y-0188976
X0054134Y-0194882
X0048228Y-020374
X0044291
X0048228Y-0209646
X0051535Y-0209291
X0051457Y-0214291
X0048228Y-0214567
Y-0219488
X0051378Y-0219291
X0051299Y-0224291
X0044783Y-0217126
X0029035
X0013287
Y-0201378
X0067913Y-0228346
X0069882Y-0163386
X0060532Y-0154134
X0064961Y-0142717
X0068898Y-0133858
X0067913Y-0129921
X0060039Y-0127953
X0060532Y-0122638
X0049213Y-0121063
Y-0109252
X0049213Y-0105315
X0049213Y-0100394
Y-0093504
X0044783Y-0091142
X0056102Y-0090551
X0061024
X0068898Y-0089567
Y-0096457
X0064961
X0065945Y-0100394
X0061024
X0063976Y-0105315
X0067913
X0076279Y-010689
Y-0091142
X007185Y-0081693
X0081693Y-0076772
X0080709Y-0072835
X0076279Y-0059646
X0088583Y-0057087
X0076279Y-0043898
X0065945Y-0033465
X0060532Y-0059646
X0059055Y-0064961
X0050197Y-0062992
X004626
X004626Y-0059055
X0043307Y-0056102
X0044783Y-0043898
X0029035
X0024606Y-0048228
X0029528Y-0054134
X0021654Y-0065945
X0013287Y-0059646
Y-0043898
Y-0075394
Y-0091142
X0021654Y-0098425
Y-0102362
X0025591Y-009941
X0028543Y-0102362
X0031496Y-0096457
X0035433
X003937Y-009941
X0035433Y-0108268
X0044783Y-010689
X0035433Y-0121063
Y-0125
X0018701Y-0128937
X0019488Y-0132874
X0022638Y-0134843
X0013287Y-0138386
Y-0122638
Y-010689
Y-0154134
X0022638Y-0159449
X0023622Y-017126
X0030512Y-0169291
Y-016437
X0047047Y-0166142
X0047244Y-0142717
X0036417Y-0147638
X0075787Y-0144685
X0076279Y-0138386
X0088583Y-0152559
X0013287Y-0169882
Y-018563
X0103347Y-017126
X0104331Y-0167323
X0110236Y-0155512
X0116339Y-0155709
X0123524Y-0138386
X0139272
X015502
X0158465Y-0145669
X0158465Y-0153543
X0151575Y-0160433
X0150591Y-0167323
X0135236Y-0175787
Y-0180118
X0130905
X0126575
Y-0184449
X0130905
X0135236
X0130905Y-0175787
X0126575
X0107776Y-0138386
Y-0122638
X0106299Y-0114173
X0111221Y-0109252
X0122441Y-011063
X0122047Y-0106299
X0122244Y-0101181
X0123524Y-0091142
X0125984Y-0093504
X0136811Y-0094488
X0143504Y-0101181
X015502Y-010689
X0170768
X0186516
X0202264
Y-0122638
X0218012
X023376
Y-0138386
X0233268Y-0149606
X0236221Y-0151575
X0240158Y-0153543
X023376Y-0169882
Y-018563
X0218012Y-0169882
X0214567Y-0167323
Y-0158465
X0216299Y-0154528
X021752Y-0151575
X0218012Y-0138386
X0202264
X0186516
Y-0122638
X0170768
Y-0138386
X016811Y-0148425
X0180118Y-0167323
X0175197Y-0187008
X015502Y-0122638
X0139272
X0135827Y-011811
X015502Y-0091142
X016437Y-0096457
X0170768Y-0091142
X0186516
X0182087Y-0076772
X0170768Y-0075394
X0169291Y-0062992
X0166339Y-0060039
X0161417Y-0064961
X015748
X0144685Y-0062992
X0140748
X0139272Y-0075394
X0123524
X0107776
X0107283Y-0070866
X0105315Y-0067913
X0111221Y-0062992
X0114173Y-0064961
X0115157Y-0061024
X011811Y-0062992
X0119095Y-0038386
X0115157
X0110236Y-0037402
X0106299
X0105315Y-0041339
X0102362Y-0047244
X0090551Y-0045276
X0092028Y-0059646
X0095472Y-0058071
X0094488Y-008563
X0107776Y-0091142
X0105315Y-0096457
X0098425Y-0105315
X0092028Y-010689
Y-0122638
X0091535Y-0129921
X0093504Y-0133858
X0092028Y-0154134
X0148622Y-0082677
Y-0041339
X0144685
X0140748Y-0034449
X0129921Y-003248
X0161417Y-0040354
Y-0044291
X0174213Y-0054134
X0176181Y-0057087
X0179134Y-0060039
X0186516Y-0059646
X0202264
Y-0075394
X0218012
X0229331Y-0076772
X0232283Y-0073819
X0235236Y-0086614
X0229331Y-0101378
X0225394
X022441Y-0108268
X0218012Y-0091142
X0209646Y-0049902
X023376Y-0043898
X0249508
Y-0059646
Y-0091142
Y-0122638
Y-0138386
Y-0154134
Y-0169882
Y-018563
Y-002815
Y-0012402
X023376
X0218012
Y-002815
X0202264
Y-0012402
X0186516
Y-002815
X0170768
Y-0012402
X0155512Y-0014764
Y-0019685
Y-0024606
X015502Y-002815
X0150591Y-0024606
X0150315Y-0019409
X0150236Y-0014409
X0150157Y-0009409
X0145669Y-0028543
X0087598Y-0024606
X0079724Y-0029528
X0063976Y-0020669
X0043307Y-0017717
X0040354Y-0022638
X003874Y-0014409
X0013287Y-0012402
Y-002815
X0022638Y-0027559
T02
X0220158Y-0157638
X0240158Y-0147638
T03
X0226969Y-005561
Y-0047736
Y-0039862
X0236811
Y-005561
T04
X0025591Y-0199961
X0035591
Y-0189961
X0025591
Y-0179961
X0035591
T05
X0231693Y-0063878
Y-0031594
T06
X0190157Y-0147638
T07
X0236811Y-0047736
T08
X0120995Y-0213878
X014068
T09
X0117058Y-0224508
X0144617
M30
