G04 Layer_Color=16711935*
%FSLAX25Y25*%
%MOIN*%
G70*
G01*
G75*
%ADD66R,0.07493X0.07493*%
%ADD67C,0.07493*%
%ADD68C,0.05524*%
%ADD69C,0.06509*%
G04:AMPARAMS|DCode=70|XSize=86.74mil|YSize=82.8mil|CornerRadius=22.7mil|HoleSize=0mil|Usage=FLASHONLY|Rotation=180.000|XOffset=0mil|YOffset=0mil|HoleType=Round|Shape=RoundedRectangle|*
%AMROUNDEDRECTD70*
21,1,0.08674,0.03740,0,0,180.0*
21,1,0.04134,0.08280,0,0,180.0*
1,1,0.04540,-0.02067,0.01870*
1,1,0.04540,0.02067,0.01870*
1,1,0.04540,0.02067,-0.01870*
1,1,0.04540,-0.02067,-0.01870*
%
%ADD70ROUNDEDRECTD70*%
%ADD71R,0.03950X0.05524*%
D66*
X35591Y-199961D02*
D03*
D67*
X25591D02*
D03*
X35591Y-189961D02*
D03*
X25591D02*
D03*
X35591Y-179961D02*
D03*
X25591D02*
D03*
D68*
X190157Y-147638D02*
D03*
X220158Y-157638D02*
D03*
X240158Y-147638D02*
D03*
X236811Y-39862D02*
D03*
Y-47736D02*
D03*
Y-55610D02*
D03*
X226969Y-39862D02*
D03*
Y-47736D02*
D03*
Y-55610D02*
D03*
D69*
X120995Y-213878D02*
D03*
X140680D02*
D03*
D70*
X117058Y-224508D02*
D03*
X144617D02*
D03*
D71*
X240551Y-133047D02*
D03*
Y-111047D02*
D03*
X251575Y-133047D02*
D03*
Y-111047D02*
D03*
X240551Y-98598D02*
D03*
Y-76598D02*
D03*
X251575Y-98598D02*
D03*
Y-76598D02*
D03*
M02*
