G04 Layer_Color=65535*
%FSLAX25Y25*%
%MOIN*%
G70*
G01*
G75*
%ADD27C,0.00984*%
%ADD28C,0.03937*%
%ADD38C,0.02362*%
%ADD39C,0.01000*%
%ADD40C,0.00787*%
D27*
X43504Y-158071D02*
G03*
X43504Y-158071I-492J0D01*
G01*
X116831Y-157972D02*
G03*
X116831Y-157972I-492J0D01*
G01*
X36417Y-31201D02*
G03*
X36417Y-31201I-492J0D01*
G01*
D28*
X148352Y-29409D02*
G03*
X148352Y-29409I-557J0D01*
G01*
X50754Y-199291D02*
G03*
X50754Y-199291I-557J0D01*
G01*
X176777Y-199094D02*
G03*
X176777Y-199094I-557J0D01*
G01*
D38*
X125394Y-162205D02*
G03*
X125394Y-162205I-1181J0D01*
G01*
X46063Y-36024D02*
G03*
X46063Y-36024I-1181J0D01*
G01*
D39*
X19842Y-205866D02*
Y-174370D01*
X41496D01*
Y-204685D02*
Y-174370D01*
Y-205866D02*
Y-204685D01*
X19842Y-205866D02*
X41496D01*
X143795Y-32409D02*
Y-6409D01*
X116795D02*
X143795D01*
X116795Y-32409D02*
Y-6409D01*
Y-32409D02*
X143795D01*
X124213Y-94095D02*
X139961D01*
Y-117717D02*
Y-94095D01*
X124213Y-117717D02*
X139961D01*
X124213D02*
Y-94095D01*
X54197Y-196291D02*
X81197D01*
Y-227291D02*
Y-196291D01*
X54197Y-227291D02*
X81197D01*
X54197D02*
Y-196291D01*
X180220Y-196095D02*
X207221D01*
Y-227095D02*
Y-196095D01*
X180220Y-227095D02*
X207221D01*
X180220D02*
Y-196095D01*
X37266Y-166148D02*
X35267D01*
X36267D01*
Y-171146D01*
X35267Y-172146D01*
X34267D01*
X33268Y-171146D01*
X39266Y-172146D02*
X41265D01*
X40266D01*
Y-166148D01*
X39266Y-167147D01*
X119156Y-35340D02*
X117157D01*
X118157D01*
Y-40339D01*
X117157Y-41339D01*
X116157D01*
X115157Y-40339D01*
X125154Y-41339D02*
X121156D01*
X125154Y-37340D01*
Y-36340D01*
X124155Y-35340D01*
X122155D01*
X121156Y-36340D01*
X73742Y-141671D02*
X72742Y-142670D01*
Y-144670D01*
X73742Y-145669D01*
X77741D01*
X78740Y-144670D01*
Y-142670D01*
X77741Y-141671D01*
X78740Y-139671D02*
Y-137672D01*
Y-138672D01*
X72742D01*
X73742Y-139671D01*
X26399Y-140194D02*
X25400Y-141194D01*
Y-143193D01*
X26399Y-144193D01*
X30398D01*
X31398Y-143193D01*
Y-141194D01*
X30398Y-140194D01*
X31398Y-134196D02*
Y-138195D01*
X27399Y-134196D01*
X26399D01*
X25400Y-135196D01*
Y-137195D01*
X26399Y-138195D01*
X136577Y-141950D02*
X135578Y-140951D01*
X133578D01*
X132579Y-141950D01*
Y-145949D01*
X133578Y-146949D01*
X135578D01*
X136577Y-145949D01*
X138577Y-141950D02*
X139576Y-140951D01*
X141576D01*
X142576Y-141950D01*
Y-142950D01*
X141576Y-143950D01*
X140576D01*
X141576D01*
X142576Y-144949D01*
Y-145949D01*
X141576Y-146949D01*
X139576D01*
X138577Y-145949D01*
X136282Y-150513D02*
X135283Y-149514D01*
X133283D01*
X132283Y-150513D01*
Y-154512D01*
X133283Y-155512D01*
X135283D01*
X136282Y-154512D01*
X141280Y-155512D02*
Y-149514D01*
X138282Y-152513D01*
X142280D01*
X13702Y-58600D02*
X12703Y-59599D01*
Y-61599D01*
X13702Y-62598D01*
X17701D01*
X18701Y-61599D01*
Y-59599D01*
X17701Y-58600D01*
X12703Y-52602D02*
Y-56600D01*
X15702D01*
X14702Y-54601D01*
Y-53601D01*
X15702Y-52602D01*
X17701D01*
X18701Y-53601D01*
Y-55601D01*
X17701Y-56600D01*
X102285Y-46789D02*
X101285Y-47788D01*
Y-49788D01*
X102285Y-50787D01*
X106284D01*
X107283Y-49788D01*
Y-47788D01*
X106284Y-46789D01*
X101285Y-40791D02*
X102285Y-42790D01*
X104284Y-44789D01*
X106284D01*
X107283Y-43790D01*
Y-41790D01*
X106284Y-40791D01*
X105284D01*
X104284Y-41790D01*
Y-44789D01*
X60101Y-90474D02*
X59101Y-89474D01*
X57102D01*
X56102Y-90474D01*
Y-94473D01*
X57102Y-95472D01*
X59101D01*
X60101Y-94473D01*
X62100Y-89474D02*
X66099D01*
Y-90474D01*
X62100Y-94473D01*
Y-95472D01*
X94845Y-103171D02*
X93845Y-102171D01*
X91846D01*
X90847Y-103171D01*
Y-107170D01*
X91846Y-108169D01*
X93845D01*
X94845Y-107170D01*
X96845Y-103171D02*
X97844Y-102171D01*
X99844D01*
X100843Y-103171D01*
Y-104171D01*
X99844Y-105170D01*
X100843Y-106170D01*
Y-107170D01*
X99844Y-108169D01*
X97844D01*
X96845Y-107170D01*
Y-106170D01*
X97844Y-105170D01*
X96845Y-104171D01*
Y-103171D01*
X97844Y-105170D02*
X99844D01*
X101440Y-93427D02*
X100440Y-92427D01*
X98441D01*
X97441Y-93427D01*
Y-97426D01*
X98441Y-98425D01*
X100440D01*
X101440Y-97426D01*
X103439D02*
X104439Y-98425D01*
X106438D01*
X107438Y-97426D01*
Y-93427D01*
X106438Y-92427D01*
X104439D01*
X103439Y-93427D01*
Y-94427D01*
X104439Y-95426D01*
X107438D01*
X95534Y-112128D02*
X94534Y-111128D01*
X92535D01*
X91535Y-112128D01*
Y-116126D01*
X92535Y-117126D01*
X94534D01*
X95534Y-116126D01*
X97534Y-117126D02*
X99533D01*
X98533D01*
Y-111128D01*
X97534Y-112128D01*
X102532D02*
X103532Y-111128D01*
X105531D01*
X106531Y-112128D01*
Y-116126D01*
X105531Y-117126D01*
X103532D01*
X102532Y-116126D01*
Y-112128D01*
X52658Y-186802D02*
X50658D01*
X51658D01*
Y-191800D01*
X50658Y-192800D01*
X49659D01*
X48659Y-191800D01*
X54657Y-187802D02*
X55657Y-186802D01*
X57656D01*
X58656Y-187802D01*
Y-188801D01*
X57656Y-189801D01*
X56656D01*
X57656D01*
X58656Y-190801D01*
Y-191800D01*
X57656Y-192800D01*
X55657D01*
X54657Y-191800D01*
X222958Y-18702D02*
X220958D01*
X221958D01*
Y-23700D01*
X220958Y-24700D01*
X219959D01*
X218959Y-23700D01*
X228956Y-18702D02*
X224957D01*
Y-21701D01*
X226957Y-20701D01*
X227956D01*
X228956Y-21701D01*
Y-23700D01*
X227956Y-24700D01*
X225957D01*
X224957Y-23700D01*
X103347Y-211522D02*
Y-217520D01*
Y-215520D01*
X107345Y-211522D01*
X104346Y-214521D01*
X107345Y-217520D01*
X109344D02*
X111344D01*
X110344D01*
Y-211522D01*
X109344Y-212521D01*
X177328Y-138148D02*
Y-132150D01*
X180327D01*
X181327Y-133150D01*
Y-135149D01*
X180327Y-136149D01*
X177328D01*
X179328D02*
X181327Y-138148D01*
X183326D02*
X185326D01*
X184326D01*
Y-132150D01*
X183326Y-133150D01*
X166339Y-143701D02*
X160340D01*
Y-140702D01*
X161340Y-139702D01*
X163340D01*
X164339Y-140702D01*
Y-143701D01*
Y-141701D02*
X166339Y-139702D01*
Y-133704D02*
Y-137703D01*
X162340Y-133704D01*
X161340D01*
X160340Y-134704D01*
Y-136703D01*
X161340Y-137703D01*
X17717Y-161417D02*
Y-155419D01*
X20716D01*
X21715Y-156419D01*
Y-158418D01*
X20716Y-159418D01*
X17717D01*
X19716D02*
X21715Y-161417D01*
X23715Y-156419D02*
X24714Y-155419D01*
X26714D01*
X27713Y-156419D01*
Y-157419D01*
X26714Y-158418D01*
X25714D01*
X26714D01*
X27713Y-159418D01*
Y-160418D01*
X26714Y-161417D01*
X24714D01*
X23715Y-160418D01*
X232283Y-107283D02*
X226285D01*
Y-104284D01*
X227285Y-103285D01*
X229284D01*
X230284Y-104284D01*
Y-107283D01*
Y-105284D02*
X232283Y-103285D01*
Y-98286D02*
X226285D01*
X229284Y-101285D01*
Y-97287D01*
X232283Y-79724D02*
X226285D01*
Y-76725D01*
X227285Y-75726D01*
X229284D01*
X230284Y-76725D01*
Y-79724D01*
Y-77725D02*
X232283Y-75726D01*
X226285Y-69728D02*
Y-73726D01*
X229284D01*
X228285Y-71727D01*
Y-70727D01*
X229284Y-69728D01*
X231284D01*
X232283Y-70727D01*
Y-72727D01*
X231284Y-73726D01*
X155512Y-68898D02*
X149514D01*
Y-65899D01*
X150513Y-64899D01*
X152513D01*
X153513Y-65899D01*
Y-68898D01*
Y-66898D02*
X155512Y-64899D01*
X149514Y-58901D02*
X150513Y-60900D01*
X152513Y-62900D01*
X154512D01*
X155512Y-61900D01*
Y-59900D01*
X154512Y-58901D01*
X153513D01*
X152513Y-59900D01*
Y-62900D01*
X169291Y-68898D02*
X163293D01*
Y-65899D01*
X164293Y-64899D01*
X166292D01*
X167292Y-65899D01*
Y-68898D01*
Y-66898D02*
X169291Y-64899D01*
X163293Y-62900D02*
Y-58901D01*
X164293D01*
X168292Y-62900D01*
X169291D01*
X21654Y-27466D02*
Y-32465D01*
X22653Y-33465D01*
X24653D01*
X25652Y-32465D01*
Y-27466D01*
X27652Y-33465D02*
X29651D01*
X28651D01*
Y-27466D01*
X27652Y-28466D01*
X51181Y-121955D02*
Y-126953D01*
X52181Y-127953D01*
X54180D01*
X55180Y-126953D01*
Y-121955D01*
X61178Y-127953D02*
X57179D01*
X61178Y-123954D01*
Y-122954D01*
X60178Y-121955D01*
X58179D01*
X57179Y-122954D01*
X114459Y-148029D02*
Y-153027D01*
X115459Y-154027D01*
X117458D01*
X118458Y-153027D01*
Y-148029D01*
X120457Y-149028D02*
X121457Y-148029D01*
X123456D01*
X124456Y-149028D01*
Y-150028D01*
X123456Y-151028D01*
X122457D01*
X123456D01*
X124456Y-152027D01*
Y-153027D01*
X123456Y-154027D01*
X121457D01*
X120457Y-153027D01*
X124707Y-84583D02*
Y-89582D01*
X125707Y-90582D01*
X127707D01*
X128706Y-89582D01*
Y-84583D01*
X133705Y-90582D02*
Y-84583D01*
X130705Y-87582D01*
X134704D01*
X184117Y-186915D02*
X182117D01*
X183117D01*
Y-191914D01*
X182117Y-192913D01*
X181118D01*
X180118Y-191914D01*
X189115Y-192913D02*
Y-186915D01*
X186116Y-189914D01*
X190115D01*
D40*
X176772Y-163583D02*
Y-159646D01*
Y-163583D02*
X180709D01*
X176772Y-145473D02*
Y-141535D01*
X180709D01*
X255512D02*
X259449D01*
Y-145473D02*
Y-141535D01*
Y-163583D02*
Y-159646D01*
X255512Y-163583D02*
X259449D01*
X236811Y-64665D02*
X245079D01*
Y-30807D01*
X236811D02*
X245079D01*
X218307D02*
X226575D01*
X218307Y-64665D02*
Y-30807D01*
Y-64665D02*
X226575D01*
X42913Y-151772D02*
X69291D01*
X42913Y-141535D02*
X69291D01*
X42913Y-151772D02*
Y-141535D01*
X69291Y-151772D02*
Y-141535D01*
X73327Y-154724D02*
Y-154331D01*
X78248Y-154724D02*
Y-154331D01*
X38878Y-138976D02*
Y-138583D01*
X33957Y-138976D02*
Y-138583D01*
X109055Y-108465D02*
X113386D01*
X109055Y-102165D02*
X113386D01*
X120276Y-201969D02*
X141535D01*
X120276Y-158268D02*
X141535D01*
Y-201969D02*
Y-158268D01*
X120276Y-201969D02*
Y-158268D01*
X22146Y-57284D02*
Y-56890D01*
X27067Y-57284D02*
Y-56890D01*
X40945Y-68307D02*
X77165D01*
X40945Y-32087D02*
X77165D01*
Y-68307D02*
Y-32087D01*
X40945Y-68307D02*
Y-32087D01*
X98917Y-45472D02*
Y-45079D01*
X93996Y-45472D02*
Y-45079D01*
X149409Y-151083D02*
X149803D01*
X149409Y-156004D02*
X149803D01*
X114075Y-219094D02*
Y-210433D01*
X118110D01*
X143701D02*
X147539D01*
Y-219094D02*
Y-210433D01*
X61221Y-86122D02*
X61614D01*
X61221Y-81201D02*
X61614D01*
M02*
