G04 Layer_Color=8388736*
%FSLAX25Y25*%
%MOIN*%
G70*
G01*
G75*
%ADD41R,0.13681X0.01673*%
%ADD42R,0.12598X0.06102*%
%ADD43R,0.05807X0.31299*%
%ADD44R,0.31299X0.05807*%
%ADD45R,0.13976X0.03740*%
%ADD46R,0.09744X0.00787*%
%ADD47R,0.05315X0.18701*%
%ADD48R,0.13976X0.02953*%
%ADD49R,0.05512X0.40748*%
%ADD50R,0.10249X0.03792*%
G04:AMPARAMS|DCode=51|XSize=102.49mil|YSize=37.92mil|CornerRadius=11.48mil|HoleSize=0mil|Usage=FLASHONLY|Rotation=180.000|XOffset=0mil|YOffset=0mil|HoleType=Round|Shape=RoundedRectangle|*
%AMROUNDEDRECTD51*
21,1,0.10249,0.01496,0,0,180.0*
21,1,0.07953,0.03792,0,0,180.0*
1,1,0.02296,-0.03976,0.00748*
1,1,0.02296,0.03976,0.00748*
1,1,0.02296,0.03976,-0.00748*
1,1,0.02296,-0.03976,-0.00748*
%
%ADD51ROUNDEDRECTD51*%
%ADD52R,0.05308X0.02965*%
%ADD53R,0.02965X0.05308*%
%ADD54R,0.04540X0.10249*%
%ADD55R,0.13792X0.10249*%
%ADD56R,0.06509X0.05328*%
%ADD57R,0.04343X0.04737*%
%ADD58R,0.05328X0.07887*%
%ADD59R,0.04737X0.04343*%
%ADD60R,0.16981X0.17965*%
%ADD61R,0.05524X0.02375*%
%ADD62O,0.02965X0.07690*%
%ADD63O,0.07690X0.02965*%
%ADD64R,0.05328X0.06509*%
%ADD65R,0.02375X0.06115*%
%ADD66R,0.07493X0.07493*%
%ADD67C,0.07493*%
%ADD68C,0.05524*%
%ADD69C,0.06509*%
G04:AMPARAMS|DCode=70|XSize=86.74mil|YSize=82.8mil|CornerRadius=22.7mil|HoleSize=0mil|Usage=FLASHONLY|Rotation=180.000|XOffset=0mil|YOffset=0mil|HoleType=Round|Shape=RoundedRectangle|*
%AMROUNDEDRECTD70*
21,1,0.08674,0.03740,0,0,180.0*
21,1,0.04134,0.08280,0,0,180.0*
1,1,0.04540,-0.02067,0.01870*
1,1,0.04540,0.02067,0.01870*
1,1,0.04540,0.02067,-0.01870*
1,1,0.04540,-0.02067,-0.01870*
%
%ADD70ROUNDEDRECTD70*%
D41*
X130856Y-213927D02*
D03*
D42*
X130807Y-213878D02*
D03*
D43*
X82234Y-50394D02*
D03*
X35974Y-50787D02*
D03*
D44*
X58366Y-73278D02*
D03*
X59547Y-27018D02*
D03*
D45*
X132087Y-98425D02*
D03*
D46*
X129971Y-111909D02*
D03*
D47*
X136417Y-105905D02*
D03*
X127756D02*
D03*
D48*
X132087Y-113779D02*
D03*
D49*
X145472Y-180118D02*
D03*
X116339D02*
D03*
D50*
X137795Y-29409D02*
D03*
X60197Y-199291D02*
D03*
X186221Y-199094D02*
D03*
D51*
X137795Y-24409D02*
D03*
Y-19409D02*
D03*
Y-14409D02*
D03*
Y-9409D02*
D03*
X122795Y-29409D02*
D03*
Y-24409D02*
D03*
Y-19409D02*
D03*
Y-14409D02*
D03*
Y-9409D02*
D03*
X75197Y-219291D02*
D03*
Y-214291D02*
D03*
Y-209291D02*
D03*
Y-204291D02*
D03*
Y-199291D02*
D03*
X60197Y-219291D02*
D03*
Y-214291D02*
D03*
Y-209291D02*
D03*
Y-204291D02*
D03*
Y-224291D02*
D03*
X75197D02*
D03*
X201220Y-219094D02*
D03*
Y-214094D02*
D03*
Y-209095D02*
D03*
Y-204095D02*
D03*
Y-199094D02*
D03*
X186221Y-219094D02*
D03*
Y-214094D02*
D03*
Y-209095D02*
D03*
Y-204095D02*
D03*
Y-224095D02*
D03*
X201220D02*
D03*
D52*
X136417Y-113779D02*
D03*
Y-110630D02*
D03*
Y-107480D02*
D03*
Y-104331D02*
D03*
Y-101181D02*
D03*
Y-98032D02*
D03*
X127756Y-113779D02*
D03*
Y-110630D02*
D03*
Y-107480D02*
D03*
Y-104331D02*
D03*
Y-101181D02*
D03*
Y-98032D02*
D03*
D53*
X132087Y-114173D02*
D03*
Y-97638D02*
D03*
D54*
X47047Y-158071D02*
D03*
X56102D02*
D03*
X65158D02*
D03*
D55*
X56102Y-135236D02*
D03*
D56*
X75787Y-158071D02*
D03*
Y-150984D02*
D03*
X36417Y-135236D02*
D03*
Y-142323D02*
D03*
X24606Y-60630D02*
D03*
Y-53543D02*
D03*
X96457Y-41732D02*
D03*
Y-48819D02*
D03*
D57*
X19488Y-165354D02*
D03*
X25787D02*
D03*
X111024Y-95472D02*
D03*
X117323D02*
D03*
X111024Y-114173D02*
D03*
X117323D02*
D03*
X152756Y-145669D02*
D03*
X146457D02*
D03*
D58*
X117126Y-105315D02*
D03*
X105315D02*
D03*
D59*
X152559Y-78937D02*
D03*
Y-72638D02*
D03*
X166339Y-78937D02*
D03*
Y-72638D02*
D03*
X229331Y-111811D02*
D03*
Y-118110D02*
D03*
Y-84449D02*
D03*
Y-90748D02*
D03*
X163386Y-148425D02*
D03*
Y-154724D02*
D03*
D60*
X130905Y-180118D02*
D03*
D61*
X145472Y-199311D02*
D03*
Y-196752D02*
D03*
Y-194193D02*
D03*
Y-191634D02*
D03*
Y-189075D02*
D03*
Y-186516D02*
D03*
Y-183957D02*
D03*
Y-181398D02*
D03*
Y-178839D02*
D03*
Y-176279D02*
D03*
Y-173721D02*
D03*
Y-171161D02*
D03*
Y-168602D02*
D03*
Y-166043D02*
D03*
Y-163484D02*
D03*
Y-160925D02*
D03*
X116339Y-199311D02*
D03*
Y-196752D02*
D03*
Y-194193D02*
D03*
Y-191634D02*
D03*
Y-189075D02*
D03*
Y-186516D02*
D03*
Y-183957D02*
D03*
Y-181398D02*
D03*
Y-178839D02*
D03*
Y-176279D02*
D03*
Y-173721D02*
D03*
Y-171161D02*
D03*
Y-168602D02*
D03*
Y-166043D02*
D03*
Y-163484D02*
D03*
Y-160925D02*
D03*
D62*
X43307Y-27067D02*
D03*
X46457D02*
D03*
X49606D02*
D03*
X52756D02*
D03*
X55905D02*
D03*
X59055D02*
D03*
X62205D02*
D03*
X65354D02*
D03*
X68504D02*
D03*
X71653D02*
D03*
X74803D02*
D03*
Y-73327D02*
D03*
X71653D02*
D03*
X68504D02*
D03*
X65354D02*
D03*
X62205D02*
D03*
X59055D02*
D03*
X55905D02*
D03*
X52756D02*
D03*
X49606D02*
D03*
X46457D02*
D03*
X43307D02*
D03*
D63*
X82185Y-34449D02*
D03*
Y-37598D02*
D03*
Y-40748D02*
D03*
Y-43898D02*
D03*
Y-47047D02*
D03*
Y-50197D02*
D03*
Y-53347D02*
D03*
Y-56496D02*
D03*
Y-59646D02*
D03*
Y-62795D02*
D03*
Y-65945D02*
D03*
X35925D02*
D03*
Y-62795D02*
D03*
Y-59646D02*
D03*
Y-56496D02*
D03*
Y-53347D02*
D03*
Y-50197D02*
D03*
Y-47047D02*
D03*
Y-43898D02*
D03*
Y-40748D02*
D03*
Y-37598D02*
D03*
Y-34449D02*
D03*
D64*
X146063Y-153543D02*
D03*
X153150D02*
D03*
X64961Y-83661D02*
D03*
X57874D02*
D03*
D65*
X125719Y-213878D02*
D03*
X128278D02*
D03*
X130837D02*
D03*
X133396D02*
D03*
X135955D02*
D03*
D66*
X35591Y-199961D02*
D03*
D67*
X25591D02*
D03*
X35591Y-189961D02*
D03*
X25591D02*
D03*
X35591Y-179961D02*
D03*
X25591D02*
D03*
D68*
X190157Y-147638D02*
D03*
X220158Y-157638D02*
D03*
X240158Y-147638D02*
D03*
X236811Y-39862D02*
D03*
Y-47736D02*
D03*
Y-55610D02*
D03*
X226969Y-39862D02*
D03*
Y-47736D02*
D03*
Y-55610D02*
D03*
D69*
X120995Y-213878D02*
D03*
X140680D02*
D03*
D70*
X117058Y-224508D02*
D03*
X144617D02*
D03*
M02*
