G04 Layer_Color=32896*
%FSLAX25Y25*%
%MOIN*%
G70*
G01*
G75*
%ADD39C,0.01000*%
%ADD40C,0.00787*%
D39*
X229269Y-128860D02*
X230269Y-127860D01*
X232268D01*
X233268Y-128860D01*
Y-129860D01*
X232268Y-130859D01*
X230269D01*
X229269Y-131859D01*
Y-132859D01*
X230269Y-133858D01*
X232268D01*
X233268Y-132859D01*
X227270Y-127860D02*
Y-133858D01*
X225270Y-131859D01*
X223271Y-133858D01*
Y-127860D01*
X221272Y-133858D02*
X219272D01*
X220272D01*
Y-127860D01*
X221272Y-128860D01*
X229269Y-91458D02*
X230269Y-90459D01*
X232268D01*
X233268Y-91458D01*
Y-92458D01*
X232268Y-93458D01*
X230269D01*
X229269Y-94457D01*
Y-95457D01*
X230269Y-96457D01*
X232268D01*
X233268Y-95457D01*
X227270Y-90459D02*
Y-96457D01*
X225270Y-94457D01*
X223271Y-96457D01*
Y-90459D01*
X217273Y-96457D02*
X221272D01*
X217273Y-92458D01*
Y-91458D01*
X218273Y-90459D01*
X220272D01*
X221272Y-91458D01*
D40*
X251575Y-122047D02*
G03*
X251575Y-122047I-5512J0D01*
G01*
Y-87598D02*
G03*
X251575Y-87598I-5512J0D01*
G01*
X236221Y-131102D02*
Y-112992D01*
X255906Y-131102D02*
Y-112992D01*
X236221Y-96653D02*
Y-78543D01*
X255906Y-96653D02*
Y-78543D01*
M02*
