G04 Layer_Physical_Order=2*
G04 Layer_Color=16711680*
%FSLAX25Y25*%
%MOIN*%
G70*
G01*
G75*
%ADD26C,0.01575*%
%ADD27C,0.00984*%
%ADD29R,0.06693X0.06693*%
%ADD30C,0.06693*%
%ADD31C,0.04724*%
%ADD32C,0.05709*%
G04:AMPARAMS|DCode=33|XSize=78.74mil|YSize=74.8mil|CornerRadius=18.7mil|HoleSize=0mil|Usage=FLASHONLY|Rotation=180.000|XOffset=0mil|YOffset=0mil|HoleType=Round|Shape=RoundedRectangle|*
%AMROUNDEDRECTD33*
21,1,0.07874,0.03740,0,0,180.0*
21,1,0.04134,0.07480,0,0,180.0*
1,1,0.03740,-0.02067,0.01870*
1,1,0.03740,0.02067,0.01870*
1,1,0.03740,0.02067,-0.01870*
1,1,0.03740,-0.02067,-0.01870*
%
%ADD33ROUNDEDRECTD33*%
%ADD34C,0.02362*%
%ADD35C,0.07874*%
%ADD36C,0.02756*%
%ADD37R,0.03150X0.04724*%
G36*
X260502Y-232943D02*
X1309D01*
Y-1309D01*
X260502D01*
Y-232943D01*
D02*
G37*
%LPC*%
G36*
X251181Y-133441D02*
X249197D01*
Y-135409D01*
X249258Y-135717D01*
X249432Y-135977D01*
X249693Y-136151D01*
X250000Y-136212D01*
X251181D01*
Y-133441D01*
D02*
G37*
G36*
X253952D02*
X251969D01*
Y-136212D01*
X253150D01*
X253457Y-136151D01*
X253717Y-135977D01*
X253891Y-135717D01*
X253952Y-135409D01*
Y-133441D01*
D02*
G37*
G36*
X251181Y-129882D02*
X250000D01*
X249693Y-129943D01*
X249432Y-130117D01*
X249258Y-130378D01*
X249197Y-130685D01*
Y-132653D01*
X251181D01*
Y-129882D01*
D02*
G37*
G36*
X240158Y-144263D02*
X239284Y-144378D01*
X238470Y-144715D01*
X237771Y-145251D01*
X237234Y-145950D01*
X236897Y-146764D01*
X236782Y-147638D01*
X236897Y-148511D01*
X236973Y-148694D01*
X236286Y-149380D01*
X236221Y-149367D01*
X235376Y-149535D01*
X234659Y-150014D01*
X234181Y-150730D01*
X234013Y-151575D01*
X234181Y-152420D01*
X234659Y-153136D01*
X235376Y-153614D01*
X236221Y-153783D01*
X237065Y-153614D01*
X237782Y-153136D01*
X238260Y-152420D01*
X238428Y-151575D01*
X238415Y-151509D01*
X239102Y-150823D01*
X239284Y-150898D01*
X240158Y-151013D01*
X241031Y-150898D01*
X241845Y-150561D01*
X242544Y-150024D01*
X243081Y-149326D01*
X243418Y-148511D01*
X243533Y-147638D01*
X243418Y-146764D01*
X243081Y-145950D01*
X242544Y-145251D01*
X241845Y-144715D01*
X241031Y-144378D01*
X240158Y-144263D01*
D02*
G37*
G36*
X25984Y-175843D02*
Y-179567D01*
X29708D01*
X29618Y-178882D01*
X29201Y-177876D01*
X28539Y-177012D01*
X27675Y-176350D01*
X26670Y-175933D01*
X25984Y-175843D01*
D02*
G37*
G36*
X216299Y-152320D02*
X215454Y-152488D01*
X214738Y-152966D01*
X214260Y-153683D01*
X214091Y-154528D01*
X214260Y-155372D01*
X214738Y-156089D01*
X215454Y-156567D01*
X216299Y-156735D01*
X216399Y-156715D01*
X216848Y-157136D01*
X216782Y-157638D01*
X216897Y-158511D01*
X217234Y-159326D01*
X217771Y-160024D01*
X218470Y-160561D01*
X219284Y-160898D01*
X220158Y-161013D01*
X221031Y-160898D01*
X221845Y-160561D01*
X222544Y-160024D01*
X223081Y-159326D01*
X223418Y-158511D01*
X223533Y-157638D01*
X223418Y-156764D01*
X223081Y-155950D01*
X222544Y-155251D01*
X221845Y-154715D01*
X221031Y-154377D01*
X220158Y-154262D01*
X219284Y-154377D01*
X219102Y-154453D01*
X218341Y-153692D01*
X218339Y-153683D01*
X217860Y-152966D01*
X217144Y-152488D01*
X216299Y-152320D01*
D02*
G37*
G36*
X190157Y-144263D02*
X189284Y-144378D01*
X188470Y-144715D01*
X187771Y-145251D01*
X187234Y-145950D01*
X186897Y-146764D01*
X186782Y-147638D01*
X186897Y-148511D01*
X187234Y-149326D01*
X187771Y-150024D01*
X188470Y-150561D01*
X189284Y-150898D01*
X190157Y-151013D01*
X191031Y-150898D01*
X191845Y-150561D01*
X192544Y-150024D01*
X193081Y-149326D01*
X193418Y-148511D01*
X193533Y-147638D01*
X193418Y-146764D01*
X193081Y-145950D01*
X192544Y-145251D01*
X191845Y-144715D01*
X191031Y-144378D01*
X190157Y-144263D01*
D02*
G37*
G36*
X253952Y-111441D02*
X251969D01*
Y-114212D01*
X253150D01*
X253457Y-114151D01*
X253717Y-113977D01*
X253891Y-113717D01*
X253952Y-113409D01*
Y-111441D01*
D02*
G37*
G36*
X251181Y-107882D02*
X250000D01*
X249693Y-107943D01*
X249432Y-108117D01*
X249258Y-108378D01*
X249197Y-108685D01*
Y-110653D01*
X251181D01*
Y-107882D01*
D02*
G37*
G36*
X253150D02*
X251969D01*
Y-110653D01*
X253952D01*
Y-108685D01*
X253891Y-108378D01*
X253717Y-108117D01*
X253457Y-107943D01*
X253150Y-107882D01*
D02*
G37*
G36*
X251181Y-111441D02*
X249197D01*
Y-113409D01*
X249258Y-113717D01*
X249432Y-113977D01*
X249693Y-114151D01*
X250000Y-114212D01*
X251181D01*
Y-111441D01*
D02*
G37*
G36*
X253150Y-129882D02*
X251969D01*
Y-132653D01*
X253952D01*
Y-130685D01*
X253891Y-130378D01*
X253717Y-130117D01*
X253457Y-129943D01*
X253150Y-129882D01*
D02*
G37*
G36*
X93504Y-131650D02*
X92659Y-131819D01*
X92310Y-132052D01*
X70092D01*
X69743Y-131819D01*
X68898Y-131650D01*
X68053Y-131819D01*
X67336Y-132297D01*
X66858Y-133013D01*
X66690Y-133858D01*
X66858Y-134703D01*
X67336Y-135419D01*
X68053Y-135898D01*
X68898Y-136066D01*
X69743Y-135898D01*
X70092Y-135665D01*
X92310D01*
X92659Y-135898D01*
X93504Y-136066D01*
X94349Y-135898D01*
X95065Y-135419D01*
X95544Y-134703D01*
X95712Y-133858D01*
X95544Y-133013D01*
X95065Y-132297D01*
X94349Y-131819D01*
X93504Y-131650D01*
D02*
G37*
G36*
X35433Y-122792D02*
X34588Y-122960D01*
X34239Y-123194D01*
X27559D01*
X26868Y-123331D01*
X26282Y-123723D01*
X19301Y-130703D01*
X18643Y-130834D01*
X17927Y-131313D01*
X17448Y-132029D01*
X17280Y-132874D01*
X17448Y-133719D01*
X17927Y-134435D01*
X18643Y-134914D01*
X19488Y-135082D01*
X20333Y-134914D01*
X21049Y-134435D01*
X21528Y-133719D01*
X21561Y-133553D01*
X28307Y-126806D01*
X34239D01*
X34588Y-127040D01*
X35433Y-127208D01*
X36278Y-127040D01*
X36994Y-126561D01*
X37473Y-125845D01*
X37641Y-125000D01*
X37473Y-124155D01*
X36994Y-123439D01*
X36278Y-122960D01*
X35433Y-122792D01*
D02*
G37*
G36*
X25197Y-175843D02*
X24511Y-175933D01*
X23506Y-176350D01*
X22642Y-177012D01*
X21980Y-177876D01*
X21563Y-178882D01*
X21473Y-179567D01*
X25197D01*
Y-175843D01*
D02*
G37*
G36*
X140680Y-210006D02*
X139678Y-210138D01*
X138744Y-210525D01*
X137942Y-211140D01*
X137327Y-211942D01*
X136940Y-212876D01*
X136808Y-213878D01*
X136940Y-214880D01*
X137327Y-215814D01*
X137942Y-216616D01*
X138744Y-217231D01*
X139678Y-217618D01*
X140680Y-217750D01*
X141682Y-217618D01*
X142616Y-217231D01*
X143417Y-216616D01*
X144033Y-215814D01*
X144420Y-214880D01*
X144551Y-213878D01*
X144420Y-212876D01*
X144033Y-211942D01*
X143417Y-211140D01*
X142616Y-210525D01*
X141682Y-210138D01*
X140680Y-210006D01*
D02*
G37*
G36*
X103347Y-169052D02*
X102502Y-169220D01*
X101785Y-169699D01*
X101307Y-170415D01*
X101139Y-171260D01*
X101307Y-172105D01*
X101785Y-172821D01*
X102502Y-173300D01*
X102913Y-173381D01*
X104493Y-174961D01*
Y-203530D01*
X104260Y-203879D01*
X104091Y-204724D01*
X104260Y-205569D01*
X104738Y-206286D01*
X105454Y-206764D01*
X106299Y-206932D01*
X107144Y-206764D01*
X107860Y-206286D01*
X108339Y-205569D01*
X108507Y-204724D01*
X108339Y-203879D01*
X108106Y-203530D01*
Y-174213D01*
X107968Y-173521D01*
X107577Y-172935D01*
X105468Y-170827D01*
X105386Y-170415D01*
X104908Y-169699D01*
X104191Y-169220D01*
X103347Y-169052D01*
D02*
G37*
G36*
X25591Y-195593D02*
X24460Y-195741D01*
X23406Y-196178D01*
X22502Y-196872D01*
X21808Y-197777D01*
X21371Y-198830D01*
X21223Y-199961D01*
X21371Y-201091D01*
X21808Y-202145D01*
X22502Y-203049D01*
X23406Y-203744D01*
X24460Y-204180D01*
X25591Y-204329D01*
X26721Y-204180D01*
X27775Y-203744D01*
X28679Y-203049D01*
X29373Y-202145D01*
X29810Y-201091D01*
X29959Y-199961D01*
X29810Y-198830D01*
X29373Y-197777D01*
X28679Y-196872D01*
X27775Y-196178D01*
X26721Y-195741D01*
X25591Y-195593D01*
D02*
G37*
G36*
X120995Y-210006D02*
X119993Y-210138D01*
X119059Y-210525D01*
X118257Y-211140D01*
X117642Y-211942D01*
X117255Y-212876D01*
X117123Y-213878D01*
X117255Y-214880D01*
X117642Y-215814D01*
X118257Y-216616D01*
X119059Y-217231D01*
X119993Y-217618D01*
X120995Y-217750D01*
X121997Y-217618D01*
X122931Y-217231D01*
X123732Y-216616D01*
X124348Y-215814D01*
X124734Y-214880D01*
X124866Y-213878D01*
X124734Y-212876D01*
X124348Y-211942D01*
X123732Y-211140D01*
X122931Y-210525D01*
X121997Y-210138D01*
X120995Y-210006D01*
D02*
G37*
G36*
X119125Y-219759D02*
X114991D01*
X114246Y-219857D01*
X113551Y-220145D01*
X112955Y-220602D01*
X112497Y-221198D01*
X112210Y-221893D01*
X112112Y-222638D01*
Y-226378D01*
X112210Y-227123D01*
X112497Y-227817D01*
X112955Y-228414D01*
X113551Y-228871D01*
X114246Y-229159D01*
X114991Y-229257D01*
X119125D01*
X119870Y-229159D01*
X120564Y-228871D01*
X121160Y-228414D01*
X121618Y-227817D01*
X121906Y-227123D01*
X122004Y-226378D01*
Y-222638D01*
X121906Y-221893D01*
X121618Y-221198D01*
X121160Y-220602D01*
X120564Y-220145D01*
X119870Y-219857D01*
X119125Y-219759D01*
D02*
G37*
G36*
X146684D02*
X142550D01*
X141805Y-219857D01*
X141110Y-220145D01*
X140514Y-220602D01*
X140057Y-221198D01*
X139769Y-221893D01*
X139671Y-222638D01*
Y-226378D01*
X139769Y-227123D01*
X140057Y-227817D01*
X140514Y-228414D01*
X141110Y-228871D01*
X141805Y-229159D01*
X142550Y-229257D01*
X146684D01*
X147429Y-229159D01*
X148123Y-228871D01*
X148719Y-228414D01*
X149177Y-227817D01*
X149464Y-227123D01*
X149563Y-226378D01*
Y-222638D01*
X149464Y-221893D01*
X149177Y-221198D01*
X148719Y-220602D01*
X148123Y-220145D01*
X147429Y-219857D01*
X146684Y-219759D01*
D02*
G37*
G36*
X48228Y-186769D02*
X47383Y-186937D01*
X46667Y-187415D01*
X46189Y-188131D01*
X46021Y-188976D01*
X46189Y-189821D01*
X46667Y-190538D01*
X46723Y-190575D01*
Y-202142D01*
X46667Y-202179D01*
X46189Y-202895D01*
X46021Y-203740D01*
X46189Y-204585D01*
X46667Y-205301D01*
X47383Y-205780D01*
X48228Y-205948D01*
X49073Y-205780D01*
X49530Y-205475D01*
X50030Y-205742D01*
Y-207693D01*
X49974Y-207730D01*
X49496Y-208447D01*
X49328Y-209291D01*
X49496Y-210136D01*
X49974Y-210853D01*
X50691Y-211331D01*
X51058Y-211404D01*
X51310Y-211964D01*
X51213Y-212132D01*
X50612Y-212252D01*
X49896Y-212730D01*
X49417Y-213446D01*
X49249Y-214291D01*
X49417Y-215136D01*
X49896Y-215852D01*
X50612Y-216331D01*
X50979Y-216404D01*
X51232Y-216964D01*
X51134Y-217132D01*
X50533Y-217252D01*
X49817Y-217730D01*
X49338Y-218446D01*
X49170Y-219291D01*
X49338Y-220136D01*
X49817Y-220852D01*
X50533Y-221331D01*
X50901Y-221404D01*
X51153Y-221964D01*
X51055Y-222132D01*
X50454Y-222252D01*
X49738Y-222730D01*
X49259Y-223446D01*
X49091Y-224291D01*
X49259Y-225136D01*
X49738Y-225852D01*
X50454Y-226331D01*
X51299Y-226499D01*
X52144Y-226331D01*
X52860Y-225852D01*
X53339Y-225136D01*
X53507Y-224291D01*
X53494Y-224225D01*
X63072Y-214647D01*
X63398Y-214159D01*
X63513Y-213583D01*
Y-195496D01*
X63569Y-195458D01*
X64047Y-194742D01*
X64215Y-193897D01*
X64047Y-193052D01*
X63569Y-192336D01*
X62853Y-191858D01*
X62008Y-191690D01*
X61609Y-191769D01*
X61183Y-191344D01*
X61263Y-190945D01*
X61095Y-190100D01*
X60616Y-189383D01*
X59900Y-188905D01*
X59055Y-188737D01*
X58210Y-188905D01*
X57694Y-189250D01*
X57189Y-189123D01*
X57129Y-189072D01*
X56679Y-188399D01*
X55963Y-187920D01*
X55118Y-187752D01*
X54273Y-187920D01*
X53765Y-188260D01*
X53412Y-187730D01*
X52695Y-187252D01*
X51850Y-187084D01*
X51006Y-187252D01*
X50450Y-187623D01*
X49867Y-187531D01*
X49790Y-187415D01*
X49073Y-186937D01*
X48228Y-186769D01*
D02*
G37*
G36*
X35591Y-175593D02*
X34460Y-175741D01*
X33406Y-176178D01*
X32502Y-176872D01*
X31808Y-177777D01*
X31371Y-178830D01*
X31223Y-179961D01*
X31371Y-181091D01*
X31808Y-182145D01*
X32502Y-183049D01*
X33406Y-183744D01*
X34460Y-184180D01*
X35591Y-184329D01*
X36721Y-184180D01*
X37775Y-183744D01*
X38679Y-183049D01*
X39373Y-182145D01*
X39810Y-181091D01*
X39959Y-179961D01*
X39810Y-178830D01*
X39373Y-177777D01*
X38679Y-176872D01*
X37775Y-176178D01*
X36721Y-175741D01*
X35591Y-175593D01*
D02*
G37*
G36*
X29708Y-180354D02*
X25984D01*
Y-184078D01*
X26670Y-183988D01*
X27675Y-183572D01*
X28539Y-182909D01*
X29201Y-182045D01*
X29618Y-181040D01*
X29708Y-180354D01*
D02*
G37*
G36*
X25197D02*
X21473D01*
X21563Y-181040D01*
X21980Y-182045D01*
X22642Y-182909D01*
X23506Y-183572D01*
X24511Y-183988D01*
X25197Y-184078D01*
Y-180354D01*
D02*
G37*
G36*
X173228Y-191690D02*
X172383Y-191858D01*
X171667Y-192336D01*
X171422Y-192702D01*
X170821D01*
X170577Y-192336D01*
X169861Y-191858D01*
X169016Y-191690D01*
X168171Y-191858D01*
X167455Y-192336D01*
X166976Y-193053D01*
X166948Y-193195D01*
X166438D01*
X166410Y-193053D01*
X165931Y-192336D01*
X165215Y-191858D01*
X164370Y-191690D01*
X163525Y-191858D01*
X162809Y-192336D01*
X162330Y-193053D01*
X162162Y-193898D01*
X162330Y-194743D01*
X162809Y-195459D01*
X163525Y-195937D01*
X164370Y-196105D01*
X164436Y-196092D01*
X169821Y-201478D01*
X169891Y-201524D01*
X169785Y-202055D01*
X169069Y-202533D01*
X168590Y-203250D01*
X168422Y-204095D01*
X168590Y-204939D01*
X169069Y-205656D01*
X169785Y-206134D01*
X170630Y-206302D01*
X171475Y-206134D01*
X172191Y-205656D01*
X172228Y-205600D01*
X176197D01*
X176234Y-205656D01*
X176950Y-206134D01*
X177795Y-206302D01*
X178640Y-206134D01*
X179356Y-205656D01*
X179835Y-204939D01*
X180003Y-204095D01*
X179835Y-203250D01*
X179356Y-202533D01*
X179185Y-202419D01*
X179336Y-201919D01*
X180105D01*
X180581Y-202395D01*
Y-207054D01*
X180046Y-207589D01*
X179315D01*
X179278Y-207533D01*
X178561Y-207055D01*
X177717Y-206887D01*
X176872Y-207055D01*
X176155Y-207533D01*
X175677Y-208250D01*
X175509Y-209095D01*
X175677Y-209939D01*
X176155Y-210656D01*
X176872Y-211134D01*
X177717Y-211302D01*
X178561Y-211134D01*
X179278Y-210656D01*
X179315Y-210600D01*
X180669D01*
X181245Y-210485D01*
X181603Y-210246D01*
X181922Y-210635D01*
X179967Y-212589D01*
X179236D01*
X179199Y-212533D01*
X178483Y-212055D01*
X177638Y-211887D01*
X176793Y-212055D01*
X176077Y-212533D01*
X175598Y-213250D01*
X175430Y-214094D01*
X175598Y-214939D01*
X176077Y-215656D01*
X176793Y-216134D01*
X177638Y-216302D01*
X178483Y-216134D01*
X179199Y-215656D01*
X179236Y-215600D01*
X180591D01*
X181167Y-215485D01*
X181655Y-215159D01*
X184056Y-212757D01*
X184518Y-212949D01*
Y-213943D01*
X180873Y-217589D01*
X179157D01*
X179120Y-217533D01*
X178404Y-217055D01*
X177559Y-216887D01*
X176714Y-217055D01*
X175998Y-217533D01*
X175519Y-218250D01*
X175351Y-219094D01*
X175519Y-219939D01*
X175998Y-220656D01*
X176714Y-221134D01*
X177559Y-221302D01*
X178404Y-221134D01*
X179120Y-220656D01*
X179157Y-220600D01*
X181496D01*
X182072Y-220485D01*
X182561Y-220159D01*
X186025Y-216694D01*
X186487Y-216886D01*
Y-217880D01*
X181778Y-222589D01*
X179079D01*
X179041Y-222533D01*
X178325Y-222055D01*
X177480Y-221887D01*
X176635Y-222055D01*
X175919Y-222533D01*
X175441Y-223250D01*
X175273Y-224095D01*
X175441Y-224939D01*
X175919Y-225656D01*
X176635Y-226134D01*
X177480Y-226302D01*
X178325Y-226134D01*
X179041Y-225656D01*
X179079Y-225600D01*
X182402D01*
X182978Y-225485D01*
X183466Y-225159D01*
X189057Y-219568D01*
X189383Y-219080D01*
X189497Y-218504D01*
Y-198819D01*
X189383Y-198243D01*
X189057Y-197755D01*
X184135Y-192833D01*
X183647Y-192507D01*
X183071Y-192392D01*
X178764D01*
X178726Y-192336D01*
X178010Y-191858D01*
X177165Y-191690D01*
X176321Y-191858D01*
X175604Y-192336D01*
X175447Y-192572D01*
X174947D01*
X174789Y-192336D01*
X174073Y-191858D01*
X173228Y-191690D01*
D02*
G37*
G36*
X38937Y-195611D02*
X32244D01*
X31860Y-195687D01*
X31534Y-195905D01*
X31317Y-196230D01*
X31241Y-196614D01*
Y-203307D01*
X31317Y-203691D01*
X31534Y-204017D01*
X31860Y-204234D01*
X32244Y-204311D01*
X38937D01*
X39321Y-204234D01*
X39647Y-204017D01*
X39864Y-203691D01*
X39941Y-203307D01*
Y-196614D01*
X39864Y-196230D01*
X39647Y-195905D01*
X39321Y-195687D01*
X38937Y-195611D01*
D02*
G37*
G36*
X25591Y-185593D02*
X24460Y-185741D01*
X23406Y-186178D01*
X22502Y-186872D01*
X21808Y-187777D01*
X21371Y-188830D01*
X21223Y-189961D01*
X21371Y-191091D01*
X21808Y-192145D01*
X22502Y-193049D01*
X23406Y-193744D01*
X24460Y-194180D01*
X25591Y-194329D01*
X26721Y-194180D01*
X27775Y-193744D01*
X28679Y-193049D01*
X29373Y-192145D01*
X29810Y-191091D01*
X29959Y-189961D01*
X29810Y-188830D01*
X29373Y-187777D01*
X28679Y-186872D01*
X27775Y-186178D01*
X26721Y-185741D01*
X25591Y-185593D01*
D02*
G37*
G36*
X35591D02*
X34460Y-185741D01*
X33406Y-186178D01*
X32502Y-186872D01*
X31808Y-187777D01*
X31371Y-188830D01*
X31223Y-189961D01*
X31371Y-191091D01*
X31808Y-192145D01*
X32502Y-193049D01*
X33406Y-193744D01*
X34460Y-194180D01*
X35591Y-194329D01*
X36721Y-194180D01*
X37775Y-193744D01*
X38679Y-193049D01*
X39373Y-192145D01*
X39810Y-191091D01*
X39959Y-189961D01*
X39810Y-188830D01*
X39373Y-187777D01*
X38679Y-186872D01*
X37775Y-186178D01*
X36721Y-185741D01*
X35591Y-185593D01*
D02*
G37*
G36*
X63976Y-103107D02*
X63131Y-103275D01*
X62415Y-103754D01*
X62378Y-103810D01*
X50811D01*
X50774Y-103754D01*
X50058Y-103275D01*
X49213Y-103107D01*
X48368Y-103275D01*
X47651Y-103754D01*
X47173Y-104470D01*
X47005Y-105315D01*
X47173Y-106160D01*
X47651Y-106876D01*
X48368Y-107355D01*
X49213Y-107523D01*
X50058Y-107355D01*
X50774Y-106876D01*
X50811Y-106820D01*
X62378D01*
X62415Y-106876D01*
X63131Y-107355D01*
X63976Y-107523D01*
X64821Y-107355D01*
X65538Y-106876D01*
X66016Y-106160D01*
X66184Y-105315D01*
X66016Y-104470D01*
X65538Y-103754D01*
X64821Y-103275D01*
X63976Y-103107D01*
D02*
G37*
G36*
X179134Y-57832D02*
X178289Y-58000D01*
X177940Y-58233D01*
X167533D01*
X167183Y-58000D01*
X166339Y-57832D01*
X165494Y-58000D01*
X164777Y-58478D01*
X164299Y-59194D01*
X164131Y-60039D01*
X164299Y-60884D01*
X164777Y-61601D01*
X165494Y-62079D01*
X166339Y-62247D01*
X167183Y-62079D01*
X167533Y-61846D01*
X177940D01*
X178289Y-62079D01*
X179134Y-62247D01*
X179979Y-62079D01*
X180695Y-61601D01*
X181174Y-60884D01*
X181342Y-60039D01*
X181174Y-59194D01*
X180695Y-58478D01*
X179979Y-58000D01*
X179134Y-57832D01*
D02*
G37*
G36*
X226969Y-44361D02*
X226095Y-44476D01*
X225281Y-44813D01*
X224582Y-45349D01*
X224045Y-46049D01*
X223708Y-46863D01*
X223593Y-47736D01*
X223708Y-48610D01*
X224045Y-49424D01*
X224582Y-50123D01*
X225281Y-50659D01*
X226095Y-50997D01*
X226969Y-51112D01*
X227842Y-50997D01*
X228656Y-50659D01*
X229355Y-50123D01*
X229892Y-49424D01*
X230229Y-48610D01*
X230344Y-47736D01*
X230229Y-46863D01*
X229892Y-46049D01*
X229355Y-45349D01*
X228656Y-44813D01*
X227842Y-44476D01*
X226969Y-44361D01*
D02*
G37*
G36*
X236811D02*
X235937Y-44476D01*
X235123Y-44813D01*
X234424Y-45349D01*
X233888Y-46049D01*
X233551Y-46863D01*
X233436Y-47736D01*
X233551Y-48610D01*
X233888Y-49424D01*
X234424Y-50123D01*
X235123Y-50659D01*
X235937Y-50997D01*
X236811Y-51112D01*
X237685Y-50997D01*
X238499Y-50659D01*
X239198Y-50123D01*
X239734Y-49424D01*
X240071Y-48610D01*
X240186Y-47736D01*
X240071Y-46863D01*
X239734Y-46049D01*
X239198Y-45349D01*
X238499Y-44813D01*
X237685Y-44476D01*
X236811Y-44361D01*
D02*
G37*
G36*
Y-52235D02*
X235937Y-52350D01*
X235123Y-52687D01*
X234424Y-53224D01*
X233888Y-53923D01*
X233551Y-54737D01*
X233436Y-55610D01*
X233551Y-56484D01*
X233888Y-57298D01*
X234424Y-57997D01*
X235123Y-58533D01*
X235937Y-58871D01*
X236811Y-58986D01*
X237685Y-58871D01*
X238499Y-58533D01*
X239198Y-57997D01*
X239734Y-57298D01*
X240071Y-56484D01*
X240186Y-55610D01*
X240071Y-54737D01*
X239734Y-53923D01*
X239198Y-53224D01*
X238499Y-52687D01*
X237685Y-52350D01*
X236811Y-52235D01*
D02*
G37*
G36*
X144685Y-39131D02*
X143840Y-39299D01*
X143124Y-39777D01*
X142645Y-40494D01*
X142477Y-41339D01*
X142645Y-42184D01*
X143124Y-42900D01*
X143180Y-42937D01*
Y-61394D01*
X143124Y-61431D01*
X142645Y-62147D01*
X142477Y-62992D01*
X142645Y-63837D01*
X143124Y-64553D01*
X143840Y-65032D01*
X144685Y-65200D01*
X145530Y-65032D01*
X146246Y-64553D01*
X146725Y-63837D01*
X146893Y-62992D01*
X146725Y-62147D01*
X146246Y-61431D01*
X146190Y-61394D01*
Y-42937D01*
X146246Y-42900D01*
X146725Y-42184D01*
X146893Y-41339D01*
X146725Y-40494D01*
X146246Y-39777D01*
X145530Y-39299D01*
X144685Y-39131D01*
D02*
G37*
G36*
X106299Y-35194D02*
X105454Y-35362D01*
X104738Y-35840D01*
X104260Y-36557D01*
X104091Y-37402D01*
X104260Y-38246D01*
X104604Y-38762D01*
X104478Y-39268D01*
X104427Y-39328D01*
X103754Y-39777D01*
X103275Y-40494D01*
X103107Y-41339D01*
X103275Y-42184D01*
X103509Y-42533D01*
Y-66719D01*
X103275Y-67068D01*
X103107Y-67913D01*
X103275Y-68758D01*
X103754Y-69475D01*
X104470Y-69953D01*
X105315Y-70121D01*
X106160Y-69953D01*
X106876Y-69475D01*
X107355Y-68758D01*
X107523Y-67913D01*
X107355Y-67068D01*
X107121Y-66719D01*
Y-42533D01*
X107355Y-42184D01*
X107502Y-41441D01*
X107966Y-41197D01*
X109715Y-42946D01*
Y-61394D01*
X109659Y-61431D01*
X109181Y-62147D01*
X109013Y-62992D01*
X109181Y-63837D01*
X109659Y-64553D01*
X110376Y-65032D01*
X111221Y-65200D01*
X112065Y-65032D01*
X112782Y-64553D01*
X113260Y-63837D01*
X113414Y-63064D01*
X113664Y-62888D01*
X113897Y-62786D01*
X114313Y-63063D01*
X115157Y-63231D01*
X116002Y-63063D01*
X116719Y-62585D01*
X117197Y-61869D01*
X117365Y-61024D01*
X117197Y-60179D01*
X116719Y-59462D01*
X116663Y-59425D01*
Y-39984D01*
X116719Y-39947D01*
X117197Y-39231D01*
X117365Y-38386D01*
X117197Y-37541D01*
X116719Y-36825D01*
X116002Y-36346D01*
X115157Y-36178D01*
X114313Y-36346D01*
X113596Y-36825D01*
X113118Y-37541D01*
X112950Y-38386D01*
X113118Y-39231D01*
X113596Y-39947D01*
X113652Y-39984D01*
Y-59425D01*
X113596Y-59462D01*
X113226Y-60017D01*
X112726Y-59865D01*
Y-42323D01*
X112611Y-41747D01*
X112285Y-41258D01*
X108494Y-37467D01*
X108507Y-37402D01*
X108339Y-36557D01*
X107860Y-35840D01*
X107144Y-35362D01*
X106299Y-35194D01*
D02*
G37*
G36*
X226969Y-52235D02*
X226095Y-52350D01*
X225281Y-52687D01*
X224582Y-53224D01*
X224045Y-53923D01*
X223708Y-54737D01*
X223593Y-55610D01*
X223708Y-56484D01*
X224045Y-57298D01*
X224582Y-57997D01*
X225281Y-58533D01*
X226095Y-58871D01*
X226969Y-58986D01*
X227842Y-58871D01*
X228656Y-58533D01*
X229355Y-57997D01*
X229892Y-57298D01*
X230229Y-56484D01*
X230344Y-55610D01*
X230229Y-54737D01*
X229892Y-53923D01*
X229355Y-53224D01*
X228656Y-52687D01*
X227842Y-52350D01*
X226969Y-52235D01*
D02*
G37*
G36*
X236811Y-36487D02*
X235937Y-36602D01*
X235123Y-36939D01*
X234424Y-37475D01*
X233888Y-38175D01*
X233551Y-38989D01*
X233436Y-39862D01*
X233551Y-40736D01*
X233888Y-41550D01*
X234424Y-42249D01*
X235123Y-42785D01*
X235937Y-43123D01*
X236811Y-43238D01*
X237685Y-43123D01*
X238499Y-42785D01*
X239198Y-42249D01*
X239734Y-41550D01*
X240071Y-40736D01*
X240186Y-39862D01*
X240071Y-38989D01*
X239734Y-38175D01*
X239198Y-37475D01*
X238499Y-36939D01*
X237685Y-36602D01*
X236811Y-36487D01*
D02*
G37*
G36*
X231693Y-26631D02*
X230408Y-26800D01*
X229211Y-27296D01*
X228183Y-28085D01*
X227394Y-29113D01*
X226898Y-30310D01*
X226729Y-31594D01*
X226898Y-32879D01*
X227394Y-34076D01*
X228183Y-35104D01*
X229211Y-35893D01*
X230408Y-36389D01*
X231693Y-36558D01*
X232978Y-36389D01*
X234175Y-35893D01*
X235203Y-35104D01*
X235992Y-34076D01*
X236488Y-32879D01*
X236657Y-31594D01*
X236488Y-30310D01*
X235992Y-29113D01*
X235203Y-28085D01*
X234175Y-27296D01*
X232978Y-26800D01*
X231693Y-26631D01*
D02*
G37*
G36*
X150591Y-22399D02*
X149746Y-22567D01*
X149396Y-22800D01*
X88793D01*
X88443Y-22567D01*
X87598Y-22399D01*
X86753Y-22567D01*
X86037Y-23045D01*
X85559Y-23761D01*
X85391Y-24606D01*
X85559Y-25451D01*
X86037Y-26167D01*
X86753Y-26646D01*
X87598Y-26814D01*
X88443Y-26646D01*
X88793Y-26413D01*
X149396D01*
X149746Y-26646D01*
X150591Y-26814D01*
X151435Y-26646D01*
X152152Y-26167D01*
X152630Y-25451D01*
X152798Y-24606D01*
X152630Y-23761D01*
X152152Y-23045D01*
X151435Y-22567D01*
X150591Y-22399D01*
D02*
G37*
G36*
X150236Y-12202D02*
X149391Y-12370D01*
X149042Y-12603D01*
X39934D01*
X39585Y-12370D01*
X38740Y-12202D01*
X37895Y-12370D01*
X37179Y-12848D01*
X36700Y-13565D01*
X36532Y-14409D01*
X36700Y-15254D01*
X37179Y-15971D01*
X37895Y-16449D01*
X38740Y-16617D01*
X39585Y-16449D01*
X39934Y-16216D01*
X41175D01*
X41411Y-16657D01*
X41267Y-16872D01*
X41099Y-17717D01*
X41267Y-18561D01*
X41746Y-19278D01*
X42462Y-19756D01*
X43307Y-19924D01*
X44152Y-19756D01*
X44501Y-19523D01*
X64488D01*
X65652Y-20687D01*
X66238Y-21078D01*
X66929Y-21216D01*
X149121D01*
X149470Y-21449D01*
X150315Y-21617D01*
X151160Y-21449D01*
X151876Y-20971D01*
X152355Y-20254D01*
X152523Y-19409D01*
X152355Y-18564D01*
X151876Y-17848D01*
X151160Y-17370D01*
X150315Y-17202D01*
X149470Y-17370D01*
X149121Y-17603D01*
X67677D01*
X66790Y-16716D01*
X66997Y-16216D01*
X149042D01*
X149391Y-16449D01*
X150236Y-16617D01*
X151081Y-16449D01*
X151797Y-15971D01*
X152276Y-15254D01*
X152444Y-14409D01*
X152276Y-13565D01*
X151797Y-12848D01*
X151081Y-12370D01*
X150236Y-12202D01*
D02*
G37*
G36*
X227362Y-36737D02*
Y-39469D01*
X230093D01*
X230037Y-39040D01*
X229720Y-38274D01*
X229215Y-37616D01*
X228557Y-37111D01*
X227791Y-36794D01*
X227362Y-36737D01*
D02*
G37*
G36*
X226575Y-40256D02*
X223844D01*
X223900Y-40684D01*
X224217Y-41451D01*
X224722Y-42109D01*
X225380Y-42613D01*
X226146Y-42931D01*
X226575Y-42987D01*
Y-40256D01*
D02*
G37*
G36*
X230093D02*
X227362D01*
Y-42987D01*
X227791Y-42931D01*
X228557Y-42613D01*
X229215Y-42109D01*
X229720Y-41451D01*
X230037Y-40684D01*
X230093Y-40256D01*
D02*
G37*
G36*
X226575Y-36737D02*
X226146Y-36794D01*
X225380Y-37111D01*
X224722Y-37616D01*
X224217Y-38274D01*
X223900Y-39040D01*
X223844Y-39469D01*
X226575D01*
Y-36737D01*
D02*
G37*
G36*
X64961Y-94249D02*
X64116Y-94417D01*
X63766Y-94650D01*
X36627D01*
X36278Y-94417D01*
X35433Y-94249D01*
X34588Y-94417D01*
X33872Y-94896D01*
X33393Y-95612D01*
X33225Y-96457D01*
X33393Y-97302D01*
X33872Y-98018D01*
X34588Y-98496D01*
X35433Y-98664D01*
X36278Y-98496D01*
X36627Y-98263D01*
X47604D01*
X47756Y-98763D01*
X47651Y-98833D01*
X47173Y-99549D01*
X47005Y-100394D01*
X47173Y-101239D01*
X47651Y-101955D01*
X48368Y-102433D01*
X49213Y-102602D01*
X50058Y-102433D01*
X50774Y-101955D01*
X50811Y-101899D01*
X59425D01*
X59462Y-101955D01*
X60179Y-102433D01*
X61024Y-102602D01*
X61869Y-102433D01*
X62585Y-101955D01*
X63063Y-101239D01*
X63231Y-100394D01*
X63063Y-99549D01*
X62585Y-98833D01*
X62481Y-98763D01*
X62632Y-98263D01*
X63766D01*
X64116Y-98496D01*
X64961Y-98664D01*
X65806Y-98496D01*
X66522Y-98018D01*
X67000Y-97302D01*
X67168Y-96457D01*
X67000Y-95612D01*
X66522Y-94896D01*
X65806Y-94417D01*
X64961Y-94249D01*
D02*
G37*
G36*
X59055Y-62753D02*
X58210Y-62921D01*
X57494Y-63399D01*
X57015Y-64116D01*
X56847Y-64961D01*
X57015Y-65806D01*
X57494Y-66522D01*
X58210Y-67000D01*
X58622Y-67082D01*
X59217Y-67677D01*
Y-89357D01*
X58984Y-89706D01*
X58816Y-90551D01*
X58984Y-91396D01*
X59462Y-92112D01*
X60179Y-92591D01*
X61024Y-92759D01*
X61869Y-92591D01*
X62585Y-92112D01*
X63063Y-91396D01*
X63231Y-90551D01*
X63063Y-89706D01*
X62830Y-89357D01*
Y-66929D01*
X62692Y-66238D01*
X62301Y-65652D01*
X61177Y-64528D01*
X61095Y-64116D01*
X60616Y-63399D01*
X59900Y-62921D01*
X59055Y-62753D01*
D02*
G37*
G36*
X251181Y-76992D02*
X249197D01*
Y-78961D01*
X249258Y-79268D01*
X249432Y-79528D01*
X249693Y-79702D01*
X250000Y-79764D01*
X251181D01*
Y-76992D01*
D02*
G37*
G36*
X253150Y-95433D02*
X251969D01*
Y-98205D01*
X253952D01*
Y-96236D01*
X253891Y-95929D01*
X253717Y-95669D01*
X253457Y-95495D01*
X253150Y-95433D01*
D02*
G37*
G36*
X251181Y-98992D02*
X249197D01*
Y-100961D01*
X249258Y-101268D01*
X249432Y-101528D01*
X249693Y-101702D01*
X250000Y-101763D01*
X251181D01*
Y-98992D01*
D02*
G37*
G36*
X253952D02*
X251969D01*
Y-101763D01*
X253150D01*
X253457Y-101702D01*
X253717Y-101528D01*
X253891Y-101268D01*
X253952Y-100961D01*
Y-98992D01*
D02*
G37*
G36*
X251181Y-95433D02*
X250000D01*
X249693Y-95495D01*
X249432Y-95669D01*
X249258Y-95929D01*
X249197Y-96236D01*
Y-98205D01*
X251181D01*
Y-95433D01*
D02*
G37*
G36*
X253952Y-76992D02*
X251969D01*
Y-79764D01*
X253150D01*
X253457Y-79702D01*
X253717Y-79528D01*
X253891Y-79268D01*
X253952Y-78961D01*
Y-76992D01*
D02*
G37*
G36*
X231693Y-58914D02*
X230408Y-59083D01*
X229211Y-59579D01*
X228183Y-60368D01*
X227394Y-61396D01*
X226898Y-62593D01*
X226729Y-63878D01*
X226898Y-65163D01*
X227394Y-66360D01*
X228183Y-67388D01*
X229211Y-68177D01*
X230408Y-68673D01*
X231693Y-68842D01*
X232978Y-68673D01*
X234175Y-68177D01*
X235203Y-67388D01*
X235992Y-66360D01*
X236488Y-65163D01*
X236657Y-63878D01*
X236488Y-62593D01*
X235992Y-61396D01*
X235203Y-60368D01*
X234175Y-59579D01*
X232978Y-59083D01*
X231693Y-58914D01*
D02*
G37*
G36*
X242126Y-73233D02*
X238976D01*
X238592Y-73309D01*
X238267Y-73527D01*
X238049Y-73852D01*
X237973Y-74236D01*
Y-75093D01*
X230716D01*
X230176Y-74732D01*
X229331Y-74564D01*
X228486Y-74732D01*
X227770Y-75210D01*
X227291Y-75927D01*
X227123Y-76772D01*
X227291Y-77617D01*
X227770Y-78333D01*
X228486Y-78811D01*
X229331Y-78979D01*
X230176Y-78811D01*
X230892Y-78333D01*
X231045Y-78104D01*
X237973D01*
Y-78961D01*
X238049Y-79345D01*
X238267Y-79670D01*
X238592Y-79888D01*
X238976Y-79964D01*
X239046D01*
Y-95233D01*
X238976D01*
X238592Y-95309D01*
X238267Y-95527D01*
X238049Y-95852D01*
X237973Y-96236D01*
Y-100961D01*
X238049Y-101345D01*
X238070Y-101376D01*
X237682Y-101695D01*
X236301Y-100313D01*
X235812Y-99987D01*
X235236Y-99873D01*
X230929D01*
X230892Y-99817D01*
X230176Y-99338D01*
X229331Y-99170D01*
X228486Y-99338D01*
X227770Y-99817D01*
X227291Y-100533D01*
X227123Y-101378D01*
X227291Y-102223D01*
X227770Y-102939D01*
X228486Y-103418D01*
X229331Y-103586D01*
X230176Y-103418D01*
X230892Y-102939D01*
X230929Y-102883D01*
X234613D01*
X238930Y-107201D01*
X238930Y-107204D01*
X238803Y-107716D01*
X238592Y-107758D01*
X238267Y-107975D01*
X238049Y-108301D01*
X237973Y-108685D01*
Y-113409D01*
X238049Y-113794D01*
X238267Y-114119D01*
X238592Y-114337D01*
X238976Y-114413D01*
X239046D01*
Y-129682D01*
X238976D01*
X238592Y-129758D01*
X238267Y-129975D01*
X238049Y-130301D01*
X237973Y-130685D01*
Y-135409D01*
X238049Y-135793D01*
X238267Y-136119D01*
X238592Y-136337D01*
X238976Y-136413D01*
X242126D01*
X242510Y-136337D01*
X242836Y-136119D01*
X243053Y-135793D01*
X243129Y-135409D01*
Y-130685D01*
X243053Y-130301D01*
X242836Y-129975D01*
X242510Y-129758D01*
X242126Y-129682D01*
X242056D01*
Y-114413D01*
X242126D01*
X242510Y-114337D01*
X242836Y-114119D01*
X243053Y-113794D01*
X243129Y-113409D01*
Y-108685D01*
X243053Y-108301D01*
X242836Y-107975D01*
X242510Y-107758D01*
X242126Y-107682D01*
X242056D01*
Y-106693D01*
X241942Y-106117D01*
X241616Y-105629D01*
X238242Y-102255D01*
X238561Y-101867D01*
X238592Y-101888D01*
X238976Y-101964D01*
X242126D01*
X242510Y-101888D01*
X242836Y-101670D01*
X243053Y-101345D01*
X243129Y-100961D01*
Y-96236D01*
X243053Y-95852D01*
X242836Y-95527D01*
X242510Y-95309D01*
X242126Y-95233D01*
X242056D01*
Y-79964D01*
X242126D01*
X242510Y-79888D01*
X242836Y-79670D01*
X243053Y-79345D01*
X243129Y-78961D01*
Y-74236D01*
X243053Y-73852D01*
X242836Y-73527D01*
X242510Y-73309D01*
X242126Y-73233D01*
D02*
G37*
G36*
X46260Y-56847D02*
X45415Y-57015D01*
X44699Y-57494D01*
X44220Y-58210D01*
X44052Y-59055D01*
X44065Y-59121D01*
X24526Y-78660D01*
X24200Y-79148D01*
X24085Y-79724D01*
Y-97811D01*
X24029Y-97848D01*
X23551Y-98565D01*
X23383Y-99410D01*
X23551Y-100254D01*
X24029Y-100971D01*
X24746Y-101449D01*
X25591Y-101617D01*
X25990Y-101538D01*
X26415Y-101963D01*
X26335Y-102362D01*
X26504Y-103207D01*
X26982Y-103923D01*
X27698Y-104402D01*
X28543Y-104570D01*
X29388Y-104402D01*
X30104Y-103923D01*
X30583Y-103207D01*
X30751Y-102362D01*
X30583Y-101517D01*
X30104Y-100801D01*
X30049Y-100764D01*
Y-81332D01*
X46194Y-65187D01*
X46260Y-65200D01*
X47105Y-65032D01*
X47821Y-64553D01*
X48300Y-63837D01*
X48468Y-62992D01*
X48300Y-62147D01*
X47821Y-61431D01*
X47585Y-61273D01*
Y-60773D01*
X47821Y-60616D01*
X48300Y-59900D01*
X48467Y-59055D01*
X48300Y-58210D01*
X47821Y-57494D01*
X47105Y-57015D01*
X46260Y-56847D01*
D02*
G37*
G36*
X161417Y-42084D02*
X160572Y-42252D01*
X159856Y-42730D01*
X159378Y-43446D01*
X159210Y-44291D01*
X159378Y-45136D01*
X159856Y-45853D01*
X159912Y-45890D01*
Y-63362D01*
X159856Y-63399D01*
X159378Y-64116D01*
X159210Y-64961D01*
X159378Y-65806D01*
X159856Y-66522D01*
X160572Y-67000D01*
X161417Y-67168D01*
X162262Y-67000D01*
X162978Y-66522D01*
X163457Y-65806D01*
X163625Y-64961D01*
X163457Y-64116D01*
X162978Y-63399D01*
X162923Y-63362D01*
Y-45890D01*
X162978Y-45853D01*
X163457Y-45136D01*
X163625Y-44291D01*
X163457Y-43446D01*
X162978Y-42730D01*
X162262Y-42252D01*
X161417Y-42084D01*
D02*
G37*
G36*
X81693Y-74564D02*
X80848Y-74732D01*
X80132Y-75210D01*
X79653Y-75927D01*
X79485Y-76772D01*
X79498Y-76837D01*
X76148Y-80188D01*
X73449D01*
X73412Y-80132D01*
X72695Y-79653D01*
X71850Y-79485D01*
X71005Y-79653D01*
X70289Y-80132D01*
X69811Y-80848D01*
X69643Y-81693D01*
X69811Y-82538D01*
X70289Y-83254D01*
X71005Y-83733D01*
X71850Y-83901D01*
X72695Y-83733D01*
X73412Y-83254D01*
X73449Y-83198D01*
X76772D01*
X77348Y-83084D01*
X77836Y-82757D01*
X81627Y-78966D01*
X81693Y-78979D01*
X82538Y-78811D01*
X83254Y-78333D01*
X83733Y-77617D01*
X83901Y-76772D01*
X83733Y-75927D01*
X83254Y-75210D01*
X82538Y-74732D01*
X81693Y-74564D01*
D02*
G37*
G36*
X251181Y-73433D02*
X250000D01*
X249693Y-73494D01*
X249432Y-73668D01*
X249258Y-73929D01*
X249197Y-74236D01*
Y-76205D01*
X251181D01*
Y-73433D01*
D02*
G37*
G36*
X253150D02*
X251969D01*
Y-76205D01*
X253952D01*
Y-74236D01*
X253891Y-73929D01*
X253717Y-73668D01*
X253457Y-73494D01*
X253150Y-73433D01*
D02*
G37*
%LPD*%
G36*
X53557Y-191521D02*
X54273Y-192000D01*
X54837Y-192112D01*
X55581Y-192857D01*
Y-208038D01*
X54186Y-209433D01*
X53723Y-209189D01*
X53575Y-208447D01*
X53097Y-207730D01*
X53041Y-207693D01*
Y-191649D01*
X53541Y-191497D01*
X53557Y-191521D01*
D02*
G37*
D26*
X105315Y-67913D02*
Y-41339D01*
X35433Y-96457D02*
X64961D01*
X61024Y-90551D02*
Y-66929D01*
X59055Y-64961D02*
X61024Y-66929D01*
X166339Y-60039D02*
X179134D01*
X19488Y-132874D02*
X19685D01*
X27559Y-125000D01*
X35433D01*
X68898Y-133858D02*
X93504D01*
X66929Y-19409D02*
X150315D01*
X65236Y-17717D02*
X66929Y-19409D01*
X43307Y-17717D02*
X65236D01*
X103347Y-171260D02*
X106299Y-174213D01*
Y-204724D02*
Y-174213D01*
X87598Y-24606D02*
X150591D01*
X38740Y-14409D02*
X150236D01*
D27*
X55118Y-190265D02*
X57087Y-192233D01*
X55118Y-190265D02*
Y-189960D01*
X57087Y-208661D02*
Y-192233D01*
X51457Y-214291D02*
X57087Y-208661D01*
X51535Y-189606D02*
X51850Y-189291D01*
X51535Y-209291D02*
Y-189606D01*
X51299Y-224291D02*
X62008Y-213583D01*
X51378Y-219291D02*
X59055Y-211614D01*
X62008Y-213583D02*
Y-193897D01*
X59055Y-211614D02*
Y-190945D01*
X48228Y-203740D02*
Y-188976D01*
X164370Y-193898D02*
X170886Y-200413D01*
X180728D01*
X169016Y-193898D02*
X173917Y-198799D01*
X182067D01*
X177165Y-193898D02*
X183071D01*
X49213Y-100394D02*
X61024D01*
X144685Y-62992D02*
Y-41339D01*
X115157Y-61024D02*
Y-38386D01*
X111221Y-62992D02*
Y-42323D01*
X161417Y-64961D02*
Y-44291D01*
X25591Y-99410D02*
Y-79724D01*
X28543Y-102362D02*
Y-80709D01*
X46260Y-59055D02*
Y-59055D01*
X28543Y-80709D02*
X46260Y-62992D01*
X25591Y-79724D02*
X46260Y-59055D01*
X49213Y-105315D02*
X63976D01*
X177480Y-224095D02*
X182402D01*
X187992Y-218504D01*
Y-198819D01*
X177559Y-219094D02*
X181496D01*
X186024Y-214567D01*
X177638Y-214094D02*
X180591D01*
X177717Y-209095D02*
X180669D01*
X182087Y-207677D01*
X183071Y-193898D02*
X187992Y-198819D01*
X173228Y-193897D02*
X176181Y-196850D01*
X183071D01*
X186024Y-199803D01*
Y-214567D02*
Y-199803D01*
X180591Y-214094D02*
X184055Y-210630D01*
X182067Y-198799D02*
X184055Y-200787D01*
Y-210630D02*
Y-200787D01*
X180728Y-200413D02*
X182087Y-201772D01*
Y-207677D02*
Y-201772D01*
X170630Y-204095D02*
X177795D01*
X217047Y-154528D02*
X220158Y-157638D01*
X240551Y-98598D02*
Y-76598D01*
Y-133047D02*
Y-111047D01*
X229331Y-76772D02*
X229504Y-76598D01*
X240551D01*
X235236Y-101378D02*
X240551Y-106693D01*
Y-111047D02*
Y-106693D01*
X229331Y-101378D02*
X235236D01*
X216299Y-154528D02*
X217047D01*
X236221Y-151575D02*
X240158Y-147638D01*
X71850Y-81693D02*
X76772D01*
X81693Y-76772D01*
X106299Y-37402D02*
X111221Y-42323D01*
D29*
X35591Y-199961D02*
D03*
D30*
X25591D02*
D03*
X35591Y-189961D02*
D03*
X25591D02*
D03*
X35591Y-179961D02*
D03*
X25591D02*
D03*
D31*
X190157Y-147638D02*
D03*
X220158Y-157638D02*
D03*
X240158Y-147638D02*
D03*
X236811Y-39862D02*
D03*
Y-47736D02*
D03*
Y-55610D02*
D03*
X226969Y-39862D02*
D03*
Y-47736D02*
D03*
Y-55610D02*
D03*
D32*
X120995Y-213878D02*
D03*
X140680D02*
D03*
D33*
X117058Y-224508D02*
D03*
X144617D02*
D03*
D34*
X249508Y-12402D02*
D03*
Y-28150D02*
D03*
Y-43898D02*
D03*
Y-59646D02*
D03*
Y-91142D02*
D03*
Y-122638D02*
D03*
Y-138386D02*
D03*
Y-154134D02*
D03*
Y-169882D02*
D03*
Y-185630D02*
D03*
Y-201378D02*
D03*
Y-217126D02*
D03*
X233760Y-12402D02*
D03*
Y-43898D02*
D03*
Y-122638D02*
D03*
Y-138386D02*
D03*
Y-169882D02*
D03*
Y-185630D02*
D03*
X218012Y-12402D02*
D03*
Y-28150D02*
D03*
Y-75394D02*
D03*
Y-91142D02*
D03*
Y-122638D02*
D03*
Y-138386D02*
D03*
Y-169882D02*
D03*
X202264Y-12402D02*
D03*
Y-28150D02*
D03*
Y-59646D02*
D03*
Y-75394D02*
D03*
Y-106890D02*
D03*
Y-122638D02*
D03*
Y-138386D02*
D03*
X186516Y-12402D02*
D03*
Y-28150D02*
D03*
Y-59646D02*
D03*
Y-91142D02*
D03*
Y-106890D02*
D03*
Y-122638D02*
D03*
Y-138386D02*
D03*
X170768Y-12402D02*
D03*
Y-28150D02*
D03*
Y-75394D02*
D03*
Y-91142D02*
D03*
Y-106890D02*
D03*
Y-122638D02*
D03*
Y-138386D02*
D03*
Y-217126D02*
D03*
X155020Y-28150D02*
D03*
Y-91142D02*
D03*
Y-106890D02*
D03*
Y-122638D02*
D03*
Y-138386D02*
D03*
Y-217126D02*
D03*
X139272Y-75394D02*
D03*
Y-122638D02*
D03*
Y-138386D02*
D03*
Y-201378D02*
D03*
X123524Y-75394D02*
D03*
Y-91142D02*
D03*
Y-138386D02*
D03*
Y-201378D02*
D03*
X107776Y-75394D02*
D03*
Y-91142D02*
D03*
Y-122638D02*
D03*
Y-138386D02*
D03*
Y-217126D02*
D03*
X92028Y-59646D02*
D03*
Y-106890D02*
D03*
Y-122638D02*
D03*
Y-154134D02*
D03*
X76279Y-43898D02*
D03*
Y-59646D02*
D03*
Y-91142D02*
D03*
Y-106890D02*
D03*
Y-138386D02*
D03*
X60532Y-59646D02*
D03*
Y-122638D02*
D03*
Y-154134D02*
D03*
X44783Y-43898D02*
D03*
Y-91142D02*
D03*
Y-106890D02*
D03*
Y-217126D02*
D03*
X29035Y-43898D02*
D03*
Y-217126D02*
D03*
X13287Y-12402D02*
D03*
Y-28150D02*
D03*
Y-43898D02*
D03*
Y-59646D02*
D03*
Y-75394D02*
D03*
Y-91142D02*
D03*
Y-106890D02*
D03*
Y-122638D02*
D03*
Y-138386D02*
D03*
Y-154134D02*
D03*
Y-169882D02*
D03*
Y-185630D02*
D03*
Y-201378D02*
D03*
Y-217126D02*
D03*
X209646Y-49902D02*
D03*
X151575Y-160433D02*
D03*
X21654Y-65945D02*
D03*
X65945Y-33465D02*
D03*
X90551Y-45276D02*
D03*
X125984Y-93504D02*
D03*
X111221Y-109252D02*
D03*
X69882Y-163386D02*
D03*
X64961Y-142717D02*
D03*
X47244D02*
D03*
X235236Y-86614D02*
D03*
X88583Y-57087D02*
D03*
X95472Y-58071D02*
D03*
X79724Y-29528D02*
D03*
X40354Y-22638D02*
D03*
X29528Y-54134D02*
D03*
X22638Y-27559D02*
D03*
X60039Y-127953D02*
D03*
X49213Y-121063D02*
D03*
X23622Y-171260D02*
D03*
X22638Y-159449D02*
D03*
Y-134843D02*
D03*
X30512Y-169291D02*
D03*
Y-164370D02*
D03*
X67913Y-228346D02*
D03*
X214567Y-167323D02*
D03*
X180118D02*
D03*
X150591D02*
D03*
X214567Y-158465D02*
D03*
X240158Y-153543D02*
D03*
X136811Y-94488D02*
D03*
X148622Y-82677D02*
D03*
X129921Y-32480D02*
D03*
X140748Y-34449D02*
D03*
X145669Y-28543D02*
D03*
X174213Y-54134D02*
D03*
X135827Y-118110D02*
D03*
X54134Y-194882D02*
D03*
X62008Y-193897D02*
D03*
X59055Y-190945D02*
D03*
X55118Y-189960D02*
D03*
X51850Y-189291D02*
D03*
X48228Y-188976D02*
D03*
X92520Y-196850D02*
D03*
X177165Y-193898D02*
D03*
X205709D02*
D03*
X175197Y-187008D02*
D03*
X224410Y-108268D02*
D03*
X164370Y-96457D02*
D03*
X182087Y-76772D02*
D03*
X68898Y-89567D02*
D03*
X94488Y-85630D02*
D03*
X110236Y-155512D02*
D03*
X88583Y-152559D02*
D03*
X104331Y-167323D02*
D03*
X68898Y-96457D02*
D03*
X39370Y-99410D02*
D03*
X35433Y-108268D02*
D03*
X50197Y-62992D02*
D03*
X43307Y-56102D02*
D03*
X232283Y-73819D02*
D03*
X225394Y-101378D02*
D03*
X233268Y-149606D02*
D03*
X217520Y-151575D02*
D03*
X48228Y-219488D02*
D03*
Y-214567D02*
D03*
Y-209646D02*
D03*
X44291Y-203740D02*
D03*
X91535Y-129921D02*
D03*
X67913D02*
D03*
X35433Y-121063D02*
D03*
X18701Y-128937D02*
D03*
X31496Y-96457D02*
D03*
X80709Y-72835D02*
D03*
X105315Y-41339D02*
D03*
X107283Y-70866D02*
D03*
X176181Y-57087D02*
D03*
X169291Y-62992D02*
D03*
X157480Y-64961D02*
D03*
X161417Y-40354D02*
D03*
X148622Y-41339D02*
D03*
X140748Y-62992D02*
D03*
X118110D02*
D03*
X114173Y-64961D02*
D03*
X119095Y-38386D02*
D03*
X110236Y-37402D02*
D03*
X155512Y-24606D02*
D03*
Y-19685D02*
D03*
Y-14764D02*
D03*
X67913Y-105315D02*
D03*
X65945Y-100394D02*
D03*
X61024D02*
D03*
X49213D02*
D03*
X64961Y-96457D02*
D03*
X61024Y-90551D02*
D03*
X49213Y-109252D02*
D03*
Y-93504D02*
D03*
X21654Y-102362D02*
D03*
Y-98425D02*
D03*
X143504Y-101181D02*
D03*
X144685Y-62992D02*
D03*
X105315Y-67913D02*
D03*
X115157Y-61024D02*
D03*
X111221Y-62992D02*
D03*
X166339Y-60039D02*
D03*
X161417Y-64961D02*
D03*
Y-44291D02*
D03*
X179134Y-60039D02*
D03*
X19488Y-132874D02*
D03*
X35433Y-125000D02*
D03*
X158465Y-145669D02*
D03*
X158465Y-153543D02*
D03*
X135955Y-206821D02*
D03*
X68898Y-133858D02*
D03*
X93504D02*
D03*
X35433Y-96457D02*
D03*
X25591Y-99410D02*
D03*
X28543Y-102362D02*
D03*
X56102Y-90551D02*
D03*
X102362Y-47244D02*
D03*
X46260Y-59055D02*
D03*
X46260Y-62992D02*
D03*
X63976Y-105315D02*
D03*
X49213D02*
D03*
X59055Y-64961D02*
D03*
X63976Y-20669D02*
D03*
X43307Y-17717D02*
D03*
X98425Y-105315D02*
D03*
X122441Y-110630D02*
D03*
X122047Y-106299D02*
D03*
X122244Y-101181D02*
D03*
X106299Y-114173D02*
D03*
X105315Y-96457D02*
D03*
X51299Y-224291D02*
D03*
X51378Y-219291D02*
D03*
X51457Y-214291D02*
D03*
X51535Y-209291D02*
D03*
X177480Y-224095D02*
D03*
X177559Y-219094D02*
D03*
X177638Y-214094D02*
D03*
X177717Y-209095D02*
D03*
X173228Y-193897D02*
D03*
X164370Y-193898D02*
D03*
X169016D02*
D03*
X177795Y-204095D02*
D03*
X170630D02*
D03*
X48228Y-203740D02*
D03*
X229331Y-76772D02*
D03*
Y-101378D02*
D03*
X168110Y-148425D02*
D03*
X216299Y-154528D02*
D03*
X236221Y-151575D02*
D03*
X75787Y-144685D02*
D03*
X47047Y-166142D02*
D03*
X36417Y-147638D02*
D03*
X103347Y-171260D02*
D03*
X106299Y-204724D02*
D03*
X150591Y-24606D02*
D03*
X87598D02*
D03*
X150315Y-19409D02*
D03*
X150236Y-14409D02*
D03*
X38740D02*
D03*
X24606Y-48228D02*
D03*
X116339Y-155709D02*
D03*
X71850Y-81693D02*
D03*
X81693Y-76772D02*
D03*
X106299Y-37402D02*
D03*
X115157Y-38386D02*
D03*
X150157Y-9409D02*
D03*
X144685Y-41339D02*
D03*
D35*
X231693Y-31594D02*
D03*
Y-63878D02*
D03*
D36*
X130905Y-184449D02*
D03*
X126575D02*
D03*
X135236Y-180118D02*
D03*
X130905D02*
D03*
X126575D02*
D03*
X135236Y-175787D02*
D03*
X130905D02*
D03*
X126575D02*
D03*
X135236Y-184449D02*
D03*
D37*
X240551Y-133047D02*
D03*
Y-111047D02*
D03*
X251575Y-133047D02*
D03*
Y-111047D02*
D03*
X240551Y-98598D02*
D03*
Y-76598D02*
D03*
X251575Y-98598D02*
D03*
Y-76598D02*
D03*
M02*
